<svg width="1056" height="1118" viewBox="0 0 1056 1118" fill="none" xmlns="http://www.w3.org/2000/svg">
  <path opacity="0.5" d="M329.135 37.8897C205.365 138.933 186.185 330 102.36 470.957C73.1804 520.005 35.4758 563.901 15.8038 618.313C-29.3598 742.858 32.7982 884.133 115.994 983.053C155.666 1030.24 202.005 1073.47 258.07 1093.36C301.184 1108.66 347.413 1109.3 392.795 1109.7L1187.87 1117.66C1276.64 1118.54 1375.27 1115.38 1439.1 1048.62C1483.09 1002.65 1500.96 935.518 1516.12 871.44C1534.75 792.703 1551.64 707.194 1522.65 632.201C1489.54 546.401 1405.79 497.778 1353.77 423.741C1269.35 303.79 1271.29 122.363 1163.77 26.6036C1113.58 -18.0892 1047.35 -35.6159 982.818 -44.3792C861.152 -60.9232 745.907 -29.694 626.427 -34.0491C524.297 -37.7668 413.861 -31.2873 329.135 37.8897Z" fill="#E7ECFF" />
</svg>
